<svg xmlns="http://www.w3.org/2000/svg" width="256" height="256"><path fill-opacity=".016" d="M0 128.004v128.004l128.25-.254 128.25-.254.254-127.75L257.008 0H0v128.004m.485.496c0 70.4.119 99.053.265 63.672.146-35.38.146-92.98 0-128C.604 29.153.485 58.1.485 128.5" fill="#1976D2" fill-rule="evenodd"/><path fill-opacity=".247" d="M115.5.639C93.465 3.127 71.427 11.226 55 22.873 45.789 29.403 31.802 43.12 24.788 52.5 14.396 66.398 6.354 84.601 2.372 103.232c-2.508 11.737-2.495 38.11.024 49.768C12.393 199.253 44 234.741 88.34 249.497c36.949 12.296 78.313 6.529 111.246-15.511 10.16-6.799 27.601-24.24 34.4-34.4 10.379-15.509 17.719-34.191 20.072-51.086.612-4.4 1.525-8.781 2.028-9.736 1.159-2.202 1.21-22.065.055-21.351-.472.292-1.14-2.494-1.484-6.191-2.686-28.903-20.102-60.582-44.704-81.318C184.392 8.361 147.722-3.001 115.5.639m-8.732 102.42c-2.052 1.083-4.415 3.291-5.25 4.906-2.944 5.692-1.264 25.22 3.06 35.568 3.216 7.696 11.886 11.067 26.303 10.228 9.839-.573 15.217-2.455 17.659-6.181 2.8-4.275 6.464-18.516 7.122-27.689.728-10.155-.767-13.852-6.872-16.986-3.239-1.663-5.908-1.899-21-1.861-15.221.039-17.737.28-21.022 2.015m13.531 12.901c-8.677 5.29-8.315 19.878.607 24.491 9.748 5.042 21.081-1.541 21.09-12.251.008-8.535-5.572-14.193-13.996-14.193-2.703 0-5.778.78-7.701 1.953M.374 128.5c.002 6.05.167 8.396.366 5.213.199-3.182.197-8.132-.004-11-.201-2.867-.364-.263-.362 5.787" fill="#1976D2" fill-rule="evenodd"/><path fill-opacity=".529" d="M117.912 54.058C90.63 57.775 66.27 77.881 57.446 103.963c-9.573 28.296-1.251 60.016 20.881 79.592 29.751 26.315 74.208 25.007 102.221-3.007 32.094-32.093 28.433-84.66-7.808-112.122-15.118-11.456-36.014-16.932-54.828-14.368M113 69.576c-14.459 3.798-29.61 14.92-36.509 26.804C73.518 101.501 69 113.06 69 115.545c0 2.518 8.742 1.541 28.5-3.183 1.86-.445 2.013.071 2.179 7.368.338 14.814 4.674 27.69 10.522 31.246 5.081 3.09 16.033 4.493 24.648 3.158 8.83-1.368 12.279-3.238 15.042-8.155 2.76-4.91 6.037-18.989 6.354-27.299.14-3.672.48-6.669.755-6.661.275.008 3.875.895 8 1.971s10.762 2.255 14.75 2.621c8.506.78 8.471.844 4.921-8.935-3.479-9.587-7.26-15.449-14.708-22.81-7.355-7.268-17.113-12.73-27.423-15.351-7.424-1.887-22.239-1.856-29.54.061m9.071 46.122c-12.335 6.483-9.242 24.243 4.516 25.928 7.309.894 14.11-4.628 15.039-12.213 1.277-10.431-10.323-18.568-19.555-13.715m-48.63 7.743c-2.88 2.139-.762 5.059 3.668 5.059 2.813 0 3.448-.407 3.728-2.387.551-3.89-3.692-5.422-7.396-2.672m14 0c-1.554 1.155-1.72 1.802-.832 3.25 1.533 2.501 7.729 2.509 8.21.011.776-4.033-3.684-6.004-7.378-3.261m74.599.011c-2.201 2.652-.841 5.048 2.865 5.048 4.417 0 6.529-2.924 3.654-5.059-2.479-1.841-4.986-1.837-6.519.011m14 0c-2.201 2.652-.841 5.048 2.865 5.048 4.417 0 6.529-2.924 3.654-5.059-2.479-1.841-4.986-1.837-6.519.011m-6.696 12.539c-9.767 2.05-17.021 8.029-21.624 17.821-2.547 5.42-3.033 7.821-3.44 17-.261 5.878-.092 11.677.375 12.886l.85 2.197 5.67-2.304c12.797-5.201 24.544-16.282 30.842-29.091 3.856-7.845 6.165-16.75 4.583-17.675-2.057-1.202-12.985-1.73-17.256-.834M71 136.852c-2.863.894-2.856 1.683.087 10.757 5.012 15.448 18.428 29.757 33.741 35.984 6.885 2.801 6.999 2.655 7.102-9.133.201-22.983-11.253-36.938-31.19-38.002-3.982-.213-8.365-.035-9.74.394" fill="#1976D2" fill-rule="evenodd"/><path fill-opacity=".326" d="M176.086 81.206l-4.414 4.842 2.597 2.726c6.254 6.565 15.2 26.157 12.964 28.393-1.124 1.124-17.499-.995-24.483-3.168L157 112.21l-.035 4.145c-.049 5.791-2.367 18.047-4.724 24.972l-1.982 5.826 3.62-3.47c6.726-6.447 11.393-8.156 22.319-8.17 12.278-.016 12.723.355 10.401 8.705-2.833 10.192-7.345 17.597-16.062 26.366-5.9 5.934-10 9.058-15.421 11.75-10.499 5.212-10.744 5.136-11.559-3.584-.827-8.848.734-19.432 3.818-25.875l2.279-4.761-2.798 2.354c-7.579 6.377-30.841 5.996-38.386-.628-5.332-4.682-9.47-18.921-9.47-32.588v-4.864l-8.788 2.215c-4.833 1.218-11.695 2.369-15.25 2.556l-6.462.341-.662 5c-.365 2.75-.422 7.115-.128 9.701.581 5.113.231 4.979 8.63 3.306 3.389-.675 13.835 1.548 18.585 3.955 5.753 2.915 11.558 9.166 14.168 15.255 4.2 9.798 4.82 31.283.903 31.283-2.797 0-15.165-6.597-19.79-10.556l-4.272-3.656-4.888 4.572-4.888 4.572 3.602 3.162c16.689 14.653 40.826 20.901 63.03 16.314 51.416-10.62 75.711-69.632 46.691-113.408-2.37-3.575-5.36-7.431-6.645-8.568l-2.336-2.069-4.414 4.843m-48.054 47.262c-5.186 5.208-9.227 9.647-8.981 9.865 1.782 1.574 5.442 2.667 8.933 2.667 8.101 0 13.016-4.872 13.016-12.903 0-3.871-1.683-9.097-2.93-9.097-.335 0-4.852 4.261-10.038 9.468m-55.365-5.801c-1.441 1.441-.577 5.311 1.426 6.383 4.468 2.391 9.854-1.999 6.867-5.598-1.216-1.466-7.06-2.019-8.293-.785m14 0c-1.441 1.441-.577 5.311 1.426 6.383 4.468 2.391 9.854-1.999 6.867-5.598-1.216-1.466-7.06-2.019-8.293-.785m74.305.866c-2.711 3.267 2.27 7.589 6.516 5.654 2.075-.945 2.575-1.793 2.328-3.945-.271-2.352-.826-2.785-3.902-3.043-2.387-.2-4.038.246-4.942 1.334m14.11-.132c-3.047 3.672 2.327 8.056 6.885 5.617 1.542-.825 2.065-1.914 1.843-3.835-.264-2.286-.841-2.728-3.896-2.984-2.277-.19-4.04.248-4.832 1.202" fill="#1976D2" fill-rule="evenodd"/></svg>